REM DIRINDEX 1\2\6,1\2\7,1\2\8,1\3\9,1\3\10,1\3\11,1\4\12,1\4\13,1\4\14,1\5\15,1\5\16,1\5\17,1\5\18
REM DIRNAME folder01,folder02,folder03,folder04,folder05,folder06,folder07,folder08,folder09,folder10,folder11,folder12,folder13,folder14,folder15,folder16,folder17,folder18
TITLE ""
FILE "" MP3
  TRACK 01 AUDIO
    TITLE "15:cjc019_6585"
    INDEX 01 00:00:00
  TRACK 02 AUDIO
    TITLE "0:"
    INDEX 01 00:08:60
  TRACK 03 AUDIO
    TITLE "16:cjc019_6586"
    INDEX 01 00:09:71
  TRACK 04 AUDIO
    TITLE "0:"
    INDEX 01 00:11:29
  TRACK 05 AUDIO
    TITLE "18:cjc019_6587"
    INDEX 01 00:12:09
  TRACK 06 AUDIO
    TITLE "0:"
    INDEX 01 00:13:53
  TRACK 07 AUDIO
    TITLE "17:cjc019_6588"
    INDEX 01 00:14:23
  TRACK 08 AUDIO
    TITLE "0:"
    INDEX 01 00:15:56
  TRACK 09 AUDIO
    TITLE "16:cjc019_6589"
    INDEX 01 00:17:35
  TRACK 10 AUDIO
    TITLE "0:"
    INDEX 01 00:18:56
  TRACK 11 AUDIO
    TITLE "18:cjc019_6590"
    INDEX 01 00:19:40
  TRACK 12 AUDIO
    TITLE "0:"
    INDEX 01 00:22:56
  TRACK 13 AUDIO
    TITLE "17:cjc019_6591"
    INDEX 01 00:23:32
  TRACK 14 AUDIO
    TITLE "0:"
    INDEX 01 00:24:49
  TRACK 15 AUDIO
    TITLE "16:cjc019_6592"
    INDEX 01 00:26:36
  TRACK 16 AUDIO
    TITLE "0:"
    INDEX 01 00:27:51
  TRACK 17 AUDIO
    TITLE "18:cjc019_6593"
    INDEX 01 00:28:37
  TRACK 18 AUDIO
    TITLE "0:"
    INDEX 01 00:29:52
  TRACK 19 AUDIO
    TITLE "17:cjc019_6594"
    INDEX 01 00:30:32
  TRACK 20 AUDIO
    TITLE "0:"
    INDEX 01 00:31:55
  TRACK 21 AUDIO
    TITLE "16:cjc019_6595"
    INDEX 01 00:33:40
  TRACK 22 AUDIO
    TITLE "0:"
    INDEX 01 00:34:67
  TRACK 23 AUDIO
    TITLE "18:cjc019_6596"
    INDEX 01 00:35:45
  TRACK 24 AUDIO
    TITLE "0:"
    INDEX 01 00:39:29
  TRACK 25 AUDIO
    TITLE "17:cjc019_6597"
    INDEX 01 00:40:11
  TRACK 26 AUDIO
    TITLE "0:"
    INDEX 01 00:41:42
  TRACK 27 AUDIO
    TITLE "16:cjc019_6598"
    INDEX 01 00:43:23
  TRACK 28 AUDIO
    TITLE "0:"
    INDEX 01 00:44:36
  TRACK 29 AUDIO
    TITLE "18:cjc019_6599"
    INDEX 01 00:45:16
  TRACK 30 AUDIO
    TITLE "0:"
    INDEX 01 00:46:45
  TRACK 31 AUDIO
    TITLE "17:cjc019_6600"
    INDEX 01 00:47:25
  TRACK 32 AUDIO
    TITLE "0:"
    INDEX 01 00:48:40
  TRACK 33 AUDIO
    TITLE "16:cjc019_6601"
    INDEX 01 00:50:25
  TRACK 34 AUDIO
    TITLE "0:"
    INDEX 01 00:51:58
  TRACK 35 AUDIO
    TITLE "18:cjc019_6602"
    INDEX 01 00:52:32
  TRACK 36 AUDIO
    TITLE "0:"
    INDEX 01 00:53:47
  TRACK 37 AUDIO
    TITLE "17:cjc019_6603"
    INDEX 01 00:54:19
  TRACK 38 AUDIO
    TITLE "0:"
    INDEX 01 00:55:55
  TRACK 39 AUDIO
    TITLE "16:cjc019_6604"
    INDEX 01 00:57:33
  TRACK 40 AUDIO
    TITLE "0:"
    INDEX 01 00:58:50
  TRACK 41 AUDIO
    TITLE "18:cjc019_6605"
    INDEX 01 00:59:32
  TRACK 42 AUDIO
    TITLE "0:"
    INDEX 01 01:00:74
  TRACK 43 AUDIO
    TITLE "17:cjc019_6606"
    INDEX 01 01:01:48
  TRACK 44 AUDIO
    TITLE "0:"
    INDEX 01 01:02:65
  TRACK 45 AUDIO
    TITLE "16:cjc019_6607"
    INDEX 01 01:04:43
  TRACK 46 AUDIO
    TITLE "0:"
    INDEX 01 01:05:60
  TRACK 47 AUDIO
    TITLE "18:cjc019_6608"
    INDEX 01 01:06:42
  TRACK 48 AUDIO
    TITLE "0:"
    INDEX 01 01:09:32
  TRACK 49 AUDIO
    TITLE "17:cjc019_6609"
    INDEX 01 01:10:08
  TRACK 50 AUDIO
    TITLE "0:"
    INDEX 01 01:11:29
  TRACK 51 AUDIO
    TITLE "16:cjc019_6610"
    INDEX 01 01:13:12
  TRACK 52 AUDIO
    TITLE "0:"
    INDEX 01 01:14:49
  TRACK 53 AUDIO
    TITLE "18:cjc019_6611"
    INDEX 01 01:15:37
  TRACK 54 AUDIO
    TITLE "0:"
    INDEX 01 01:16:65
  TRACK 55 AUDIO
    TITLE "17:cjc019_6612"
    INDEX 01 01:17:45
  TRACK 56 AUDIO
    TITLE "0:"
    INDEX 01 01:19:05
  TRACK 57 AUDIO
    TITLE "16:cjc019_6613"
    INDEX 01 01:20:65
  TRACK 58 AUDIO
    TITLE "0:"
    INDEX 01 01:22:35
  TRACK 59 AUDIO
    TITLE "18:cjc019_6614"
    INDEX 01 01:23:18
  TRACK 60 AUDIO
    TITLE "0:"
    INDEX 01 01:24:49
  TRACK 61 AUDIO
    TITLE "17:cjc019_6615"
    INDEX 01 01:25:23
  TRACK 62 AUDIO
    TITLE "0:"
    INDEX 01 01:26:72
  TRACK 63 AUDIO
    TITLE "16:cjc019_6616"
    INDEX 01 01:28:49
  TRACK 64 AUDIO
    TITLE "0:"
    INDEX 01 01:30:01
  TRACK 65 AUDIO
    TITLE "18:cjc019_6617"
    INDEX 01 01:30:52
  TRACK 66 AUDIO
    TITLE "0:"
    INDEX 01 01:33:50
  TRACK 67 AUDIO
    TITLE "17:cjc019_6618"
    INDEX 01 01:34:24
  TRACK 68 AUDIO
    TITLE "0:"
    INDEX 01 01:35:53
  TRACK 69 AUDIO
    TITLE "16:cjc019_6619"
    INDEX 01 01:37:28
  TRACK 70 AUDIO
    TITLE "0:"
    INDEX 01 01:38:55
  TRACK 71 AUDIO
    TITLE "18:cjc019_6620"
    INDEX 01 01:39:39
  TRACK 72 AUDIO
    TITLE "0:"
    INDEX 01 01:42:41
  TRACK 73 AUDIO
    TITLE "17:cjc019_6621"
    INDEX 01 01:43:17
  TRACK 74 AUDIO
    TITLE "0:"
    INDEX 01 01:44:46
  TRACK 75 AUDIO
    TITLE "16:cjc019_6622"
    INDEX 01 01:46:23
  TRACK 76 AUDIO
    TITLE "0:"
    INDEX 01 01:47:40
  TRACK 77 AUDIO
    TITLE "18:cjc019_6623"
    INDEX 01 01:48:22
  TRACK 78 AUDIO
    TITLE "0:"
    INDEX 01 01:49:49
  TRACK 79 AUDIO
    TITLE "17:cjc019_6624"
    INDEX 01 01:50:25
  TRACK 80 AUDIO
    TITLE "0:"
    INDEX 01 01:51:58
  TRACK 81 AUDIO
    TITLE "16:cjc019_6625"
    INDEX 01 01:53:41
  TRACK 82 AUDIO
    TITLE "0:"
    INDEX 01 01:54:70
  TRACK 83 AUDIO
    TITLE "18:cjc019_6626"
    INDEX 01 01:55:52
  TRACK 84 AUDIO
    TITLE "0:"
    INDEX 01 01:57:39
  TRACK 85 AUDIO
    TITLE "17:cjc019_6627"
    INDEX 01 01:58:19
  TRACK 86 AUDIO
    TITLE "0:"
    INDEX 01 01:59:44
  TRACK 87 AUDIO
    TITLE "16:cjc019_6628"
    INDEX 01 02:01:25
  TRACK 88 AUDIO
    TITLE "0:"
    INDEX 01 02:02:46
  TRACK 89 AUDIO
    TITLE "18:cjc019_6629"
    INDEX 01 02:03:30
  TRACK 90 AUDIO
    TITLE "0:"
    INDEX 01 02:06:01
  TRACK 91 AUDIO
    TITLE "17:cjc019_6630"
    INDEX 01 02:06:54
  TRACK 92 AUDIO
    TITLE "0:"
    INDEX 01 02:08:00
  TRACK 93 AUDIO
    TITLE "16:cjc019_6631"
    INDEX 01 02:09:62
  TRACK 94 AUDIO
    TITLE "0:"
    INDEX 01 02:11:19
  TRACK 95 AUDIO
    TITLE "18:cjc019_6632"
    INDEX 01 02:12:01
  TRACK 96 AUDIO
    TITLE "0:"
    INDEX 01 02:15:27
  TRACK 97 AUDIO
    TITLE "17:cjc019_6633"
    INDEX 01 02:16:05
  TRACK 98 AUDIO
    TITLE "0:"
    INDEX 01 02:17:40
  TRACK 99 AUDIO
    TITLE "16:cjc019_6634"
    INDEX 01 02:19:19
  TRACK 100 AUDIO
    TITLE "0:"
    INDEX 01 02:20:50
  TRACK 101 AUDIO
    TITLE "18:cjc019_6635"
    INDEX 01 02:21:28
  TRACK 102 AUDIO
    TITLE "0:"
    INDEX 01 02:23:48
  TRACK 103 AUDIO
    TITLE "17:cjc019_6636"
    INDEX 01 02:24:26
  TRACK 104 AUDIO
    TITLE "0:"
    INDEX 01 02:25:61
